<svg xmlns="http://www.w3.org/2000/svg" viewBox="0 0 1024 1024" width="1024" height="1024">
  <!-- Rounded square background -->
  <rect width="1024" height="1024" rx="180" ry="180" fill="#0A1F3D"/>
  <!-- Dollar sign (traced from original) -->
  <g transform="translate(0,1024) scale(0.1,-0.1)" fill="#2BCC8E">
    <path d="M4770 7947 l0 -333 -102 -23 c-639 -142 -1068 -540 -1173 -1091 -22 -115 -30 -334 -16 -451 44 -374 224 -677 542 -914 160 -119 304 -196 574 -304 284 -115 506 -237 571 -314 47 -56 66 -107 71 -192 9 -143 -49 -245 -174 -307 -58 -28 -76 -32 -175 -36 -390 -16 -855 143 -1270 434 -42 30 -79 54 -82 54 -3 0 -6 -277 -6 -615 l0 -614 38 -26 c102 -70 404 -154 732 -205 98 -15 383 -40 457 -40 10 0 13 -71 13 -335 l0 -335 390 0 390 0 2 377 3 377 150 51 c503 170 851 506 974 940 39 140 45 189 46 365 0 242 -30 375 -131 570 -177 343 -508 594 -1149 869 -397 171 -530 284 -543 462 -6 93 11 149 64 208 88 98 232 139 439 126 356 -22 748 -141 1043 -315 l52 -32 0 601 0 600 -63 20 c-85 26 -235 57 -392 80 -115 18 -184 25 -432 47 l-63 6 0 314 0 314 -390 0 -390 0 0 -333z"/>
  </g>
</svg>