<svg xmlns="http://www.w3.org/2000/svg" viewBox="0 0 1024 1024" width="1024" height="1024" role="img" aria-label="Grana">
  <rect x="0" y="0" width="1024" height="1024" rx="230" fill="#0B1A2B"/>
  <path d="M470.86 293.43999999999994 459.98 211.15999999999997H559.94L548.38 293.43999999999994ZM459.98 802.76 470.86 720.48H548.38L559.94 802.76ZM516.4200000000001 729.32Q469.5 729.32 434.48 719.12Q399.46000000000004 708.92 376.34000000000003 689.2Q353.22 669.48 342.34000000000003 641.94Q331.46 614.4 332.82 580.4L432.78000000000003 558.64Q434.14 588.56 445.7 607.26Q457.26 625.96 476.98 634.8Q496.70000000000005 643.64 521.86 643.64Q541.58 643.64 557.22 638.88Q572.86 634.12 581.7 625.28Q590.54 616.44 590.54 604.2Q590.54 588.56 578.3 578.3599999999999Q566.0600000000001 568.16 545.32 561.02Q524.58 553.88 498.06 547.0799999999999Q469.5 538.92 440.94 529.74Q412.38 520.56 388.91999999999996 505.93999999999994Q365.46 491.32 351.17999999999995 468.53999999999996Q336.9 445.76 336.9 411.76Q336.9 369.59999999999997 358.65999999999997 340.35999999999996Q380.42 311.11999999999995 418.84000000000003 295.81999999999994Q457.26 280.52 506.22 280.52Q558.58 280.52 599.04 297.86Q639.5 315.2 661.6 348.52Q683.7 381.84 678.94 430.12L580.34 445.76Q581.02 426.03999999999996 576.6 411.0799999999999Q572.1800000000001 396.11999999999995 562.32 385.5799999999999Q552.46 375.03999999999996 537.5 369.59999999999997Q522.54 364.15999999999997 502.82000000000005 364.15999999999997Q482.42 364.15999999999997 468.82000000000005 369.59999999999997Q455.22 375.03999999999996 448.08000000000004 384.21999999999997Q440.94 393.4 440.94 404.28Q440.94 418.56 451.82000000000005 427.74Q462.70000000000005 436.91999999999996 482.42 443.71999999999997Q502.14 450.52 530.02 457.32Q558.58 464.79999999999995 587.48 474.65999999999997Q616.38 484.52 641.2 499.82Q666.02 515.12 680.98 539.26Q695.94 563.4 695.94 600.12Q695.94 643.64 672.82 672.2Q649.7 700.76 609.24 715.04Q568.78 729.32 516.4200000000001 729.32Z" fill="#10B981"/>
</svg>
