<svg xmlns="http://www.w3.org/2000/svg" xmlns:svg="http://www.w3.org/2000/svg" aria-label="Grana" viewBox="236 103 52 52">
 <g class="layer">
  <title>Layer 1</title>
  <circle cx="262" cy="129" fill="#10B981" id="svg_7" r="26"/>
  <path d="m259.82,116.89l-0.57,-4.36l5.29,0l-0.61,4.36l-4.11,0zm-0.57,26.96l0.57,-4.35l4.11,0l0.61,4.35l-5.29,0zm2.98,-3.89q-2.48,0 -4.33,-0.54q-1.86,-0.54 -3.08,-1.58q-1.23,-1.04 -1.8,-2.5q-0.58,-1.46 -0.51,-3.26l5.3,-1.15q0.07,1.58 0.68,2.57q0.61,0.99 1.66,1.46q1.04,0.47 2.37,0.47q1.05,0 1.87,-0.25q0.83,-0.26 1.3,-0.72q0.47,-0.47 0.47,-1.12q0,-0.83 -0.65,-1.37q-0.65,-0.54 -1.75,-0.92q-1.09,-0.37 -2.5,-0.73q-1.51,-0.44 -3.02,-0.92q-1.51,-0.49 -2.76,-1.26q-1.24,-0.78 -1.99,-1.98q-0.76,-1.21 -0.76,-3.01q0,-2.23 1.15,-3.78q1.15,-1.55 3.19,-2.36q2.03,-0.81 4.62,-0.81q2.78,0 4.92,0.92q2.14,0.92 3.31,2.68q1.17,1.77 0.92,4.32l-5.22,0.83q0.03,-1.04 -0.2,-1.83q-0.23,-0.8 -0.76,-1.35q-0.52,-0.56 -1.31,-0.85q-0.79,-0.29 -1.84,-0.29q-1.08,0 -1.8,0.29q-0.72,0.29 -1.09,0.77q-0.38,0.49 -0.38,1.07q0,0.75 0.57,1.24q0.58,0.48 1.62,0.84q1.05,0.36 2.52,0.72q1.52,0.4 3.05,0.92q1.53,0.52 2.84,1.33q1.31,0.81 2.11,2.09q0.79,1.28 0.79,3.22q0,2.31 -1.23,3.82q-1.22,1.51 -3.36,2.27q-2.14,0.75 -4.92,0.75z" fill="#FFFFFF" id="svg_8"/>
 </g>
</svg>